<?xml version="1.0" encoding="iso-8859-1"?>
<!-- Generator: Adobe Illustrator 24.0.3, SVG Export Plug-In . SVG Version: 6.00 Build 0)  -->
<svg version="1.1" xmlns="http://www.w3.org/2000/svg" xmlns:xlink="http://www.w3.org/1999/xlink" x="0px" y="0px"
	 viewBox="0 0 64 64" style="enable-background:new 0 0 64 64;" xml:space="preserve">
<g id="creating-job">
	<path style="fill:#D9EBFF;" d="M60.618,38.067v-0.674c0-1.856-1.505-3.361-3.361-3.361h-2.351c1.794-0.344,3.155-1.925,3.155-3.822
		c0-2.145-1.746-3.891-3.897-3.891c-2.145,0-3.891,1.746-3.891,3.891c0,1.897,1.361,3.478,3.155,3.822h-2.351
		c-1.856,0-3.361,1.505-3.361,3.361v0.674c-1.251-1.478-2.007-3.382-2.007-5.458c0-4.667,3.794-8.462,8.455-8.462
		c4.667,0,8.462,3.794,8.462,8.462C62.625,34.685,61.869,36.589,60.618,38.067z M41.371,52.042c0-4.667-3.794-8.462-8.462-8.462
		c-4.66,0-8.455,3.794-8.455,8.462c0,2.083,0.756,3.987,2.007,5.458v-0.674c0-1.849,1.505-3.361,3.354-3.361h2.358
		c-1.794-0.344-3.155-1.925-3.155-3.815c0-2.152,1.746-3.897,3.891-3.897s3.897,1.746,3.897,3.897c0,1.89-1.361,3.471-3.155,3.815
		h2.351c1.849,0,3.361,1.512,3.361,3.361v0.674C40.608,56.028,41.371,54.124,41.371,52.042z M18.289,33.214
		c0-4.66-3.794-8.462-8.455-8.462c-4.667,0-8.462,3.801-8.462,8.462c0,2.083,0.763,3.987,2.007,5.458v-0.674
		c0-1.849,1.512-3.354,3.361-3.354h2.351c-1.794-0.351-3.148-1.932-3.148-3.822c0-2.145,1.746-3.897,3.891-3.897
		s3.891,1.753,3.891,3.897c0,1.89-1.361,3.471-3.155,3.822h2.358c1.849,0,3.354,1.505,3.354,3.354v0.674
		C17.533,37.201,18.289,35.297,18.289,33.214z M40.155,11.96c0-4.667-3.794-8.462-8.462-8.462c-4.66,0-8.455,3.794-8.455,8.462
		c0,2.076,0.756,3.98,2.007,5.458v-0.674c0-1.849,1.505-3.361,3.361-3.361h2.351c-1.794-0.344-3.155-1.925-3.155-3.815
		c0-2.152,1.746-3.897,3.891-3.897c2.152,0,3.897,1.746,3.897,3.897c0,1.89-1.361,3.471-3.155,3.815h2.351
		c1.856,0,3.361,1.512,3.361,3.361v0.674C39.399,15.94,40.155,14.036,40.155,11.96z"/>
	<path style="fill:#0074FF;" d="M54.398,22.786l-13.042-9.021c0.109-0.586,0.173-1.188,0.173-1.805c0-5.422-4.411-9.833-9.833-9.833
		s-9.833,4.411-9.833,9.833c0,0.639,0.066,1.263,0.183,1.869l-10.68,9.685c-0.501-0.079-1.01-0.132-1.532-0.132
		C4.411,23.381,0,27.792,0,33.214s4.411,9.833,9.833,9.833c1.105,0,2.164-0.191,3.156-0.529l10.277,7.615
		c-0.122,0.618-0.189,1.255-0.189,1.907c0,5.422,4.411,9.833,9.833,9.833s9.833-4.411,9.833-9.833c0-0.657-0.067-1.297-0.191-1.918
		l8.358-8.247c1.021,0.36,2.113,0.565,3.255,0.565c5.422,0,9.833-4.411,9.833-9.833C64,27.263,59.712,22.91,54.398,22.786z
		 M31.696,3.5c4.664,0,8.459,3.795,8.459,8.459c0,2.08-0.758,3.984-2.008,5.459v-0.673c0-1.852-1.507-3.359-3.359-3.359h-2.352
		c1.794-0.347,3.153-1.927,3.153-3.821c0-2.147-1.746-3.893-3.893-3.893c-2.146,0-3.893,1.746-3.893,3.893
		c0,1.894,1.359,3.474,3.153,3.821h-2.352c-1.852,0-3.359,1.507-3.359,3.359v0.674c-1.25-1.475-2.008-3.379-2.008-5.459
		C23.237,7.295,27.032,3.5,31.696,3.5z M36.772,18.709c-1.416,1.067-3.17,1.708-5.076,1.708c-1.905,0-3.66-0.641-5.075-1.708v-1.965
		c0-1.094,0.89-1.984,1.984-1.984h6.183c1.094,0,1.984,0.89,1.984,1.984V18.709z M31.696,12.084c-1.389,0-2.518-1.13-2.518-2.518
		s1.129-2.518,2.518-2.518c1.389,0,2.518,1.13,2.518,2.518S33.085,12.084,31.696,12.084z M1.375,33.214
		c0-4.664,3.795-8.459,8.459-8.459s8.459,3.795,8.459,8.459c0,2.08-0.758,3.984-2.008,5.459V38c0-1.852-1.507-3.359-3.359-3.359
		h-2.352c1.794-0.347,3.153-1.927,3.153-3.821c0-2.146-1.746-3.893-3.893-3.893c-2.147,0-3.893,1.746-3.893,3.893
		c0,1.894,1.359,3.474,3.153,3.821H6.742c-1.852,0-3.359,1.507-3.359,3.359v0.673C2.133,37.199,1.375,35.295,1.375,33.214z
		 M9.833,33.339c-1.389,0-2.518-1.13-2.518-2.518c0-1.389,1.13-2.518,2.518-2.518s2.518,1.129,2.518,2.518
		C12.351,32.209,11.222,33.339,9.833,33.339z M4.758,39.965V38c0-1.094,0.89-1.984,1.984-1.984h6.183
		c1.094,0,1.984,0.89,1.984,1.984v1.965c-1.416,1.067-3.17,1.708-5.075,1.708C7.928,41.673,6.173,41.032,4.758,39.965z
		 M27.835,58.792v-1.965c0-1.094,0.89-1.984,1.984-1.984h6.183c1.094,0,1.984,0.89,1.984,1.984v1.965
		c-1.416,1.067-3.17,1.708-5.076,1.708C31.005,60.5,29.251,59.859,27.835,58.792z M39.361,57.5v-0.673
		c0-1.852-1.507-3.359-3.359-3.359H33.65c1.794-0.347,3.153-1.927,3.153-3.821c0-2.147-1.746-3.893-3.893-3.893
		s-3.893,1.746-3.893,3.893c0,1.894,1.359,3.474,3.153,3.821h-2.352c-1.852,0-3.359,1.507-3.359,3.359V57.5
		c-1.25-1.475-2.008-3.379-2.008-5.459c0-4.664,3.795-8.459,8.459-8.459s8.459,3.795,8.459,8.459
		C41.369,54.121,40.611,56.025,39.361,57.5z M32.911,52.165c-1.389,0-2.518-1.13-2.518-2.518c0-1.389,1.13-2.518,2.518-2.518
		c1.389,0,2.518,1.13,2.518,2.518C35.429,51.036,34.299,52.165,32.911,52.165z M42.118,48.621c-1.394-3.739-4.989-6.413-9.208-6.413
		c-4.255,0-7.877,2.722-9.244,6.512l-9.216-6.828c3.1-1.657,5.216-4.923,5.216-8.677c0-4.322-2.806-7.993-6.689-9.309l9.484-8.6
		c1.374,3.777,4.989,6.486,9.234,6.486c4.295,0,7.946-2.772,9.283-6.618l11.263,7.791c-4.503,0.898-7.909,4.878-7.909,9.642
		c0,3.755,2.118,7.022,5.22,8.678L42.118,48.621z M49.091,39.358v-1.965c0-1.094,0.89-1.984,1.984-1.984h6.184
		c1.094,0,1.984,0.89,1.984,1.984v1.965c-1.416,1.067-3.17,1.708-5.075,1.708S50.507,40.425,49.091,39.358z M60.617,38.067v-0.674
		c0-1.852-1.506-3.359-3.358-3.359h-2.352c1.794-0.347,3.153-1.927,3.153-3.821c0-2.147-1.746-3.893-3.893-3.893
		s-3.893,1.746-3.893,3.893c0,1.894,1.36,3.474,3.154,3.821h-2.352c-1.852,0-3.358,1.507-3.358,3.359v0.674
		c-1.25-1.475-2.008-3.379-2.008-5.459c0-4.664,3.795-8.459,8.459-8.459s8.459,3.795,8.459,8.459
		C62.625,34.688,61.867,36.592,60.617,38.067z M54.167,32.732c-1.389,0-2.519-1.13-2.519-2.518c0-1.389,1.13-2.518,2.519-2.518
		c1.388,0,2.518,1.13,2.518,2.518C56.684,31.602,55.555,32.732,54.167,32.732z"/>
</g>
<g id="Layer_1">
</g>
</svg>
